<svg width="396" height="81" viewBox="0 0 396 81" fill="none" xmlns="http://www.w3.org/2000/svg">
<path d="M365.506 23.9202C369.87 23.9202 373.408 20.3564 373.408 15.9601C373.408 11.5639 369.87 8 365.506 8C361.143 8 357.605 11.5639 357.605 15.9601C357.605 20.3564 361.143 23.9202 365.506 23.9202Z" fill="#4F46E5"/>
<path d="M367.087 45.0941L352.548 38.5668C350.968 37.7708 350.178 40.1588 349.388 41.7509C348.597 43.3429 342.908 53.2134 343.383 54.9646C343.857 56.3975 345.121 57.1935 346.385 57.1935C346.701 57.1935 347.017 57.1935 347.333 57.0343L366.771 50.9846C368.035 50.6662 368.983 49.3926 368.983 48.119C368.983 46.8453 368.193 45.5717 367.087 45.0941Z" fill="#4F46E5"/>
<path d="M363.611 25.8307L360.134 24.2387C358.08 23.2835 355.552 24.2387 354.603 26.3083L335.798 67.0641C335.008 68.6561 335.798 70.5665 337.379 71.3625C337.853 71.5217 338.327 71.6809 338.801 71.6809C340.065 71.6809 341.171 71.0441 341.645 69.9297C341.645 69.9297 356.816 48.7558 358.08 46.2086C359.344 43.6613 365.823 31.4028 365.823 31.4028C366.614 29.3331 365.823 26.7859 363.611 25.8307Z" fill="#4F46E5"/>
<path d="M385.26 26.6267C384.154 25.353 382.1 25.0346 380.835 26.1491L372.934 32.8355L362.82 27.2635C361.082 26.3083 358.712 26.6267 357.605 28.6963C356.341 30.7659 356.973 33.3132 358.87 34.1092L371.986 39.522C372.46 39.6812 372.934 39.8404 373.408 39.8404C374.198 39.8404 374.83 39.522 375.463 39.0444L384.944 31.0843C386.208 29.9699 386.366 28.0595 385.26 26.6267Z" fill="#4F46E5"/>
<path d="M339.748 38.4076L345.121 30.2883L352.39 31.2435L354.761 26.3082C355.393 24.8754 356.657 24.0794 358.079 23.9202C357.921 23.9202 357.763 23.9202 357.763 23.9202H343.541C342.435 23.9202 341.487 24.3978 340.854 25.353L334.533 34.9052C333.585 36.338 333.901 38.4076 335.482 39.3628C335.798 39.6812 336.43 39.8404 337.062 39.8404C338.01 39.8404 339.116 39.3628 339.748 38.4076Z" fill="#4F46E5"/>
<path d="M20.224 64.64C17.6213 64.64 15.232 64.32 13.056 63.68C10.88 62.9973 8.91733 61.9947 7.168 60.672C5.41867 59.3493 3.86133 57.7493 2.496 55.872L7.936 49.728C10.0267 52.6293 12.0747 54.6347 14.08 55.744C16.0853 56.8533 18.3467 57.408 20.864 57.408C22.3147 57.408 23.6373 57.1947 24.832 56.768C26.0267 56.2987 26.9653 55.68 27.648 54.912C28.3307 54.1013 28.672 53.184 28.672 52.16C28.672 51.4347 28.5227 50.7733 28.224 50.176C27.968 49.536 27.5627 48.9813 27.008 48.512C26.4533 48 25.7707 47.5307 24.96 47.104C24.1493 46.6773 23.232 46.3147 22.208 46.016C21.184 45.7173 20.0533 45.44 18.816 45.184C16.4693 44.7147 14.4213 44.096 12.672 43.328C10.9227 42.5173 9.45067 41.536 8.256 40.384C7.06133 39.1893 6.18667 37.8667 5.632 36.416C5.07733 34.9227 4.8 33.2373 4.8 31.36C4.8 29.4827 5.20533 27.7547 6.016 26.176C6.86933 24.5973 8.02133 23.232 9.472 22.08C10.9227 20.928 12.608 20.032 14.528 19.392C16.448 18.752 18.5173 18.432 20.736 18.432C23.2533 18.432 25.4933 18.7307 27.456 19.328C29.4613 19.9253 31.2107 20.8213 32.704 22.016C34.24 23.168 35.4987 24.576 36.48 26.24L30.976 31.68C30.1227 30.3573 29.1627 29.2693 28.096 28.416C27.0293 27.52 25.8773 26.8587 24.64 26.432C23.4027 25.9627 22.1013 25.728 20.736 25.728C19.2 25.728 17.856 25.9413 16.704 26.368C15.5947 26.7947 14.72 27.4133 14.08 28.224C13.44 28.992 13.12 29.9307 13.12 31.04C13.12 31.8933 13.312 32.6613 13.696 33.344C14.08 33.984 14.6133 34.56 15.296 35.072C16.0213 35.584 16.9387 36.032 18.048 36.416C19.1573 36.8 20.416 37.1413 21.824 37.44C24.1707 37.9093 26.2827 38.5493 28.16 39.36C30.0373 40.128 31.6373 41.0667 32.96 42.176C34.2827 43.2427 35.2853 44.48 35.968 45.888C36.6507 47.2533 36.992 48.7893 36.992 50.496C36.992 53.44 36.288 55.9787 34.88 58.112C33.5147 60.2027 31.5733 61.824 29.056 62.976C26.5387 64.0853 23.5947 64.64 20.224 64.64ZM44.733 78.08V30.272H52.477L52.605 37.952L51.261 37.376C51.517 36.0533 52.2423 34.816 53.437 33.664C54.6317 32.4693 56.0823 31.5093 57.789 30.784C59.5383 30.0587 61.3517 29.696 63.229 29.696C66.2157 29.696 68.861 30.4427 71.165 31.936C73.5117 33.4293 75.3463 35.4773 76.669 38.08C78.0343 40.6827 78.717 43.6907 78.717 47.104C78.717 50.4747 78.0343 53.4827 76.669 56.128C75.3463 58.7307 73.5117 60.8 71.165 62.336C68.861 63.8293 66.2583 64.576 63.357 64.576C61.3943 64.576 59.4957 64.192 57.661 63.424C55.869 62.656 54.333 61.6533 53.053 60.416C51.8157 59.1787 51.0477 57.8773 50.749 56.512L52.669 55.616V78.08H44.733ZM61.757 57.6C63.549 57.6 65.149 57.152 66.557 56.256C67.965 55.36 69.053 54.1227 69.821 52.544C70.6317 50.9653 71.037 49.152 71.037 47.104C71.037 45.056 70.653 43.264 69.885 41.728C69.117 40.1493 68.029 38.912 66.621 38.016C65.213 37.12 63.5917 36.672 61.757 36.672C59.8797 36.672 58.237 37.12 56.829 38.016C55.4637 38.8693 54.3757 40.0853 53.565 41.664C52.7543 43.2427 52.349 45.056 52.349 47.104C52.349 49.152 52.7543 50.9653 53.565 52.544C54.3757 54.1227 55.4637 55.36 56.829 56.256C58.237 57.152 59.8797 57.6 61.757 57.6ZM101.157 64.64C97.7863 64.64 94.7783 63.8933 92.133 62.4C89.4877 60.864 87.397 58.7733 85.861 56.128C84.325 53.4827 83.557 50.4747 83.557 47.104C83.557 43.7333 84.325 40.7253 85.861 38.08C87.397 35.4347 89.4877 33.3653 92.133 31.872C94.7783 30.336 97.7863 29.568 101.157 29.568C104.485 29.568 107.472 30.336 110.117 31.872C112.762 33.3653 114.832 35.4347 116.325 38.08C117.861 40.7253 118.629 43.7333 118.629 47.104C118.629 50.4747 117.861 53.4827 116.325 56.128C114.832 58.7733 112.762 60.864 110.117 62.4C107.472 63.8933 104.485 64.64 101.157 64.64ZM101.157 57.664C102.992 57.664 104.613 57.1947 106.021 56.256C107.472 55.3173 108.602 54.0587 109.413 52.48C110.266 50.9013 110.672 49.1093 110.629 47.104C110.672 45.056 110.266 43.2427 109.413 41.664C108.602 40.0853 107.472 38.848 106.021 37.952C104.613 37.0133 102.992 36.544 101.157 36.544C99.3223 36.544 97.6583 37.0133 96.165 37.952C94.7143 38.848 93.5837 40.1067 92.773 41.728C91.9623 43.3067 91.557 45.0987 91.557 47.104C91.557 49.1093 91.9623 50.9013 92.773 52.48C93.5837 54.0587 94.7143 55.3173 96.165 56.256C97.6583 57.1947 99.3223 57.664 101.157 57.664ZM125.671 64V30.272H133.415L133.543 41.024L132.455 38.592C132.924 36.8853 133.735 35.3493 134.887 33.984C136.039 32.6187 137.361 31.552 138.855 30.784C140.391 29.9733 141.991 29.568 143.655 29.568C144.38 29.568 145.063 29.632 145.703 29.76C146.385 29.888 146.94 30.0373 147.367 30.208L145.255 38.848C144.785 38.592 144.209 38.3787 143.527 38.208C142.844 38.0373 142.161 37.952 141.479 37.952C140.412 37.952 139.388 38.1653 138.407 38.592C137.468 38.976 136.636 39.5307 135.911 40.256C135.185 40.9813 134.609 41.8347 134.183 42.816C133.799 43.7547 133.607 44.8213 133.607 46.016V64H125.671ZM157.506 64V21.696H165.378V64H157.506ZM150.85 37.568V30.272H172.738V37.568H150.85Z" fill="#1E1E1E"/>
<path d="M194.349 64.64C191.746 64.64 189.357 64.32 187.181 63.68C185.005 62.9973 183.042 61.9947 181.293 60.672C179.544 59.3493 177.986 57.7493 176.621 55.872L182.061 49.728C184.152 52.6293 186.2 54.6347 188.205 55.744C190.21 56.8533 192.472 57.408 194.989 57.408C196.44 57.408 197.762 57.1947 198.957 56.768C200.152 56.2987 201.09 55.68 201.773 54.912C202.456 54.1013 202.797 53.184 202.797 52.16C202.797 51.4347 202.648 50.7733 202.349 50.176C202.093 49.536 201.688 48.9813 201.133 48.512C200.578 48 199.896 47.5307 199.085 47.104C198.274 46.6773 197.357 46.3147 196.333 46.016C195.309 45.7173 194.178 45.44 192.941 45.184C190.594 44.7147 188.546 44.096 186.797 43.328C185.048 42.5173 183.576 41.536 182.381 40.384C181.186 39.1893 180.312 37.8667 179.757 36.416C179.202 34.9227 178.925 33.2373 178.925 31.36C178.925 29.4827 179.33 27.7547 180.141 26.176C180.994 24.5973 182.146 23.232 183.597 22.08C185.048 20.928 186.733 20.032 188.653 19.392C190.573 18.752 192.642 18.432 194.861 18.432C197.378 18.432 199.618 18.7307 201.581 19.328C203.586 19.9253 205.336 20.8213 206.829 22.016C208.365 23.168 209.624 24.576 210.605 26.24L205.101 31.68C204.248 30.3573 203.288 29.2693 202.221 28.416C201.154 27.52 200.002 26.8587 198.765 26.432C197.528 25.9627 196.226 25.728 194.861 25.728C193.325 25.728 191.981 25.9413 190.829 26.368C189.72 26.7947 188.845 27.4133 188.205 28.224C187.565 28.992 187.245 29.9307 187.245 31.04C187.245 31.8933 187.437 32.6613 187.821 33.344C188.205 33.984 188.738 34.56 189.421 35.072C190.146 35.584 191.064 36.032 192.173 36.416C193.282 36.8 194.541 37.1413 195.949 37.44C198.296 37.9093 200.408 38.5493 202.285 39.36C204.162 40.128 205.762 41.0667 207.085 42.176C208.408 43.2427 209.41 44.48 210.093 45.888C210.776 47.2533 211.117 48.7893 211.117 50.496C211.117 53.44 210.413 55.9787 209.005 58.112C207.64 60.2027 205.698 61.824 203.181 62.976C200.664 64.0853 197.72 64.64 194.349 64.64ZM222.506 64V21.696H230.378V64H222.506ZM215.85 37.568V30.272H237.738V37.568H215.85ZM258.845 64.64C255.474 64.64 252.466 63.8933 249.821 62.4C247.175 60.864 245.085 58.7733 243.549 56.128C242.013 53.4827 241.245 50.4747 241.245 47.104C241.245 43.7333 242.013 40.7253 243.549 38.08C245.085 35.4347 247.175 33.3653 249.821 31.872C252.466 30.336 255.474 29.568 258.845 29.568C262.173 29.568 265.159 30.336 267.805 31.872C270.45 33.3653 272.519 35.4347 274.013 38.08C275.549 40.7253 276.317 43.7333 276.317 47.104C276.317 50.4747 275.549 53.4827 274.013 56.128C272.519 58.7733 270.45 60.864 267.805 62.4C265.159 63.8933 262.173 64.64 258.845 64.64ZM258.845 57.664C260.679 57.664 262.301 57.1947 263.709 56.256C265.159 55.3173 266.29 54.0587 267.101 52.48C267.954 50.9013 268.359 49.1093 268.317 47.104C268.359 45.056 267.954 43.2427 267.101 41.664C266.29 40.0853 265.159 38.848 263.709 37.952C262.301 37.0133 260.679 36.544 258.845 36.544C257.01 36.544 255.346 37.0133 253.853 37.952C252.402 38.848 251.271 40.1067 250.461 41.728C249.65 43.3067 249.245 45.0987 249.245 47.104C249.245 49.1093 249.65 50.9013 250.461 52.48C251.271 54.0587 252.402 55.3173 253.853 56.256C255.346 57.1947 257.01 57.664 258.845 57.664ZM290.718 53.696L289.182 46.336L305.182 30.272H315.678L290.718 53.696ZM283.358 64V16.64H291.23V64H283.358ZM306.142 64L293.726 48.96L299.294 44.224L315.87 64H306.142Z" fill="#4F46E5"/>
</svg>
